<svg width="67" height="23" viewBox="0 0 67 23" fill="none" xmlns="http://www.w3.org/2000/svg">
<path d="M57.3872 7.46095C56.9965 7.47723 56.6057 7.52607 56.215 7.59119C57.2569 6.54927 58.5105 5.78412 59.8943 5.36084C61.4083 5.70272 62.8247 6.43531 64.0131 7.50979C65.7713 9.1215 66.7807 11.3193 66.8946 13.7124C66.9272 14.4939 66.8621 15.2753 66.6993 16.0079C66.6016 13.631 65.576 11.4332 63.834 9.80525C62.0595 8.19354 59.7803 7.34699 57.3872 7.46095Z" fill="url(#paint0_linear_30_7676)"/>
<path d="M57.3872 7.46135C59.764 7.36367 62.0432 8.19394 63.8015 9.80565C65.5597 11.4174 66.569 13.6151 66.683 16.0083C66.2272 14.5268 65.3806 13.1756 64.2085 12.0848C62.4502 10.4731 60.171 9.64285 57.7942 9.74053C56.6383 9.78937 55.5638 10.294 54.7824 11.1406C54.001 11.9872 53.594 13.1105 53.6428 14.2663C53.5451 11.8895 54.3754 9.61029 55.9871 7.85206C56.0685 7.77066 56.1499 7.67298 56.2313 7.59158C56.6057 7.51019 56.9965 7.46135 57.3872 7.46135Z" fill="url(#paint1_linear_30_7676)"/>
<path d="M64.1922 12.0846C64.2736 12.166 64.3713 12.2474 64.4527 12.3288C64.5178 12.7196 64.5666 13.1103 64.5829 13.501C64.6806 15.8779 63.8503 18.157 62.2386 19.9153C60.6269 21.6735 58.4291 22.6828 56.0359 22.7805C57.5337 22.3247 58.8687 21.4781 59.9594 20.306C61.5711 18.5478 62.4014 16.2686 62.3037 13.8917C62.2549 12.7358 61.7665 11.6614 60.9036 10.8799C60.0408 10.0985 58.9338 9.69149 57.7779 9.74033C60.171 9.62637 62.4502 10.4566 64.1922 12.0846Z" fill="url(#paint2_linear_30_7676)"/>
<path d="M64.5829 13.5003C64.5666 13.1096 64.5178 12.7188 64.4527 12.3281C65.4946 13.37 66.2597 14.6236 66.683 16.0074C66.3574 17.5377 65.6248 18.9378 64.5341 20.1262C62.9223 21.8844 60.7246 22.8938 58.3314 22.9915C57.55 23.024 56.7848 22.9589 56.0359 22.7961C58.4128 22.6984 60.6106 21.6728 62.2386 19.9308C63.8666 18.1889 64.6806 15.8771 64.5829 13.5003Z" fill="url(#paint3_linear_30_7676)"/>
<path d="M53.708 8.2261C55.3197 6.46787 57.5175 5.45852 59.9106 5.36084C58.4292 5.81668 57.0779 6.66323 55.9872 7.83538C54.3755 9.59361 53.5452 11.8728 53.6429 14.2497C53.6917 15.4055 54.1801 16.48 55.0429 17.2614C55.9058 18.0429 57.0128 18.4499 58.1687 18.401C55.7918 18.4987 53.5126 17.6684 51.7544 16.0567C51.673 15.9753 51.5753 15.8939 51.4939 15.8125C51.4288 15.4218 51.38 15.0311 51.3637 14.6404C51.2497 12.2635 52.08 9.98433 53.708 8.2261Z" fill="url(#paint4_linear_30_7676)"/>
<path d="M51.3961 8.03063C53.0079 6.2724 55.2056 5.26305 57.5988 5.16537C58.3802 5.13281 59.1617 5.19793 59.8942 5.36072C57.5174 5.4584 55.3196 6.48404 53.6916 8.22599C52.0799 9.98422 51.2496 12.2634 51.3473 14.6403C51.3636 15.031 51.4124 15.4217 51.4775 15.8124C50.4356 14.7705 49.6705 13.517 49.2472 12.1332C49.5891 10.6191 50.3217 9.20278 51.3961 8.03063Z" fill="url(#paint5_linear_30_7676)"/>
<path d="M52.1288 18.3359C53.887 19.9477 56.1662 20.7779 58.5431 20.6802C58.9338 20.664 59.3245 20.6151 59.7152 20.55C58.6733 21.5919 57.4198 22.3571 56.036 22.7804C54.5219 22.4548 53.1056 21.7222 51.9172 20.6314C50.1589 19.0197 49.1496 16.8219 49.0519 14.4288C49.0193 13.6473 49.0845 12.8659 49.2473 12.1333C49.3449 14.5264 50.3706 16.7242 52.1288 18.3359Z" fill="url(#paint6_linear_30_7676)"/>
<path d="M52.1287 18.3359C50.3705 16.7242 49.3612 14.5264 49.2472 12.1333C49.703 13.6148 50.5496 14.966 51.7217 16.0568C53.48 17.6685 55.7592 18.4987 58.136 18.4011C59.2919 18.3522 60.3664 17.8475 61.1478 17.001C61.9292 16.1544 62.3362 15.0311 62.2874 13.8753C62.3851 16.2521 61.5548 18.5313 59.9431 20.2895C59.8617 20.3709 59.7803 20.4686 59.6989 20.55C59.3082 20.6151 58.9175 20.664 58.5267 20.6802C56.1499 20.7779 53.8707 19.9477 52.1287 18.3359Z" fill="url(#paint7_linear_30_7676)"/>
<path d="M57.778 9.72404C60.1548 9.62636 62.434 10.4566 64.1923 12.0683C65.3644 13.1428 66.211 14.4941 66.6668 15.9755C66.5854 15.7476 65.3644 12.1823 61.9131 10.6194C59.7967 9.65892 58.0222 9.65892 56.7686 9.87056C57.1105 9.78916 57.4361 9.74032 57.778 9.72404Z" fill="url(#paint8_linear_30_7676)"/>
<path d="M58.1524 18.4009C55.7755 18.4986 53.4963 17.6683 51.7381 16.0566C50.5659 14.9821 49.7194 13.6309 49.2635 12.1494C49.3449 12.3773 50.5659 15.9426 54.0173 17.5055C56.1337 18.466 57.9082 18.4823 59.1617 18.2544C58.8199 18.3358 58.4943 18.4009 58.1524 18.4009Z" fill="url(#paint9_linear_30_7676)"/>
<path d="M62.3038 13.8912C62.4015 16.2681 61.5712 18.5472 59.9595 20.3055C58.885 21.4776 57.5338 22.3242 56.0523 22.78C56.2802 22.6986 59.8455 21.4776 61.4084 18.0263C62.3689 15.9099 62.3689 14.1354 62.1573 12.8818C62.2387 13.2074 62.2875 13.5493 62.3038 13.8912Z" fill="url(#paint10_linear_30_7676)"/>
<path d="M53.6265 14.2497C53.5288 11.8728 54.3591 9.59361 55.9708 7.83538C57.0453 6.66323 58.3965 5.81668 59.878 5.36084C59.6501 5.44224 56.0848 6.66323 54.5219 10.1146C53.5614 12.231 53.5614 14.0055 53.773 15.259C53.6916 14.9334 53.6428 14.5915 53.6265 14.2497Z" fill="url(#paint11_linear_30_7676)"/>
<path d="M37.4606 13.761C37.4606 13.6633 37.4606 13.5656 37.4769 13.4517C37.4606 13.647 37.4606 13.761 37.4606 13.761Z" fill="url(#paint12_linear_30_7676)"/>
<path d="M37.4606 14.0705C37.4606 13.9729 37.4606 13.8752 37.4769 13.7612H37.4606C37.4606 13.8589 37.4606 13.9729 37.4606 14.0705Z" fill="url(#paint13_linear_30_7676)"/>
<path d="M46.3332 9.41442C46.3332 9.41442 43.1749 6.77708 40.2608 8.7795C37.9002 10.4075 37.5258 12.6541 37.4607 13.4681C37.4607 13.5658 37.4444 13.6635 37.4444 13.7774H37.4607C37.5421 12.6541 38.0305 11.6285 38.8933 10.8471C39.5445 10.261 40.3748 9.88654 41.2539 9.77258C41.8725 9.69118 42.4749 9.7563 43.0447 9.9191C43.9889 10.1959 44.7052 10.7982 44.9494 10.9773C45.2262 11.1889 45.6495 11.254 45.9751 11.254C47.2612 11.254 48.3031 10.2121 48.3031 8.92602C47.9775 10.1959 46.3332 9.41442 46.3332 9.41442Z" fill="url(#paint14_linear_30_7676)"/>
<path d="M47.9774 7.73689C47.9123 7.62294 47.8309 7.50898 47.7495 7.4113C47.5378 7.21594 47.3099 7.03686 47.082 6.85778C46.0727 6.12518 44.9493 5.60423 43.7446 5.34375C42.3608 5.76703 41.1073 6.53218 40.0654 7.5741C39.984 7.6555 39.9026 7.73689 39.8212 7.83457C38.3885 9.39744 37.5745 11.3673 37.4769 13.4511C37.542 12.6534 37.9164 10.3905 40.277 8.76253C43.1911 6.74382 46.3494 9.39745 46.3494 9.39745C46.3494 9.39745 47.9937 10.1952 48.3193 8.90905C48.3193 8.51833 48.2216 8.16017 48.0588 7.83457C48.0262 7.80201 48.01 7.76945 47.9774 7.73689Z" fill="url(#paint15_linear_30_7676)"/>
<path d="M37.542 8.2261C39.1537 6.46787 41.3515 5.45852 43.7446 5.36084C42.2632 5.81668 40.9119 6.66323 39.8212 7.83538C38.2095 9.59361 37.3792 11.8728 37.4769 14.2497C37.5257 15.4055 38.0304 16.48 38.8769 17.2614C39.7235 18.0429 40.8468 18.4499 42.0027 18.401C39.6258 18.4987 37.3466 17.6684 35.5884 16.0567C35.507 15.9753 35.4093 15.8939 35.3279 15.8125C35.2628 15.4218 35.214 15.0311 35.1977 14.6404C35.0837 12.2635 35.9303 9.98433 37.542 8.2261Z" fill="url(#paint16_linear_30_7676)"/>
<path d="M35.2465 8.03063C36.8582 6.2724 39.056 5.26305 41.4491 5.16537C42.2306 5.13281 43.012 5.19793 43.7446 5.36072C41.3677 5.4584 39.1699 6.48404 37.5419 8.22599C35.9302 9.98422 35.1 12.2634 35.1976 14.6403C35.2139 15.031 35.2628 15.4217 35.3279 15.8124C34.286 14.7705 33.5208 13.517 33.0975 12.1332C33.4231 10.6191 34.1557 9.20278 35.2465 8.03063Z" fill="url(#paint17_linear_30_7676)"/>
<path d="M41.9864 18.4009C39.6095 18.4986 37.3303 17.6683 35.5721 16.0566C34.3999 14.9821 33.5534 13.6309 33.0975 12.1494C33.1789 12.3773 34.3999 15.9426 37.8513 17.5055C39.9676 18.466 41.7422 18.4823 42.9957 18.2544C42.6701 18.3358 42.3282 18.4009 41.9864 18.4009Z" fill="url(#paint18_linear_30_7676)"/>
<path d="M37.4606 14.2497C37.3629 11.8728 38.1932 9.59361 39.8049 7.83538C40.8794 6.66323 42.2306 5.81668 43.7121 5.36084C43.4842 5.44224 39.9189 6.66323 38.356 10.1146C37.3955 12.231 37.3955 14.0055 37.6071 15.259C37.542 14.9334 37.4769 14.5915 37.4606 14.2497Z" fill="url(#paint19_linear_30_7676)"/>
<path d="M42.7841 19.2313L44.3144 17.5057C44.1516 17.6847 43.8748 17.8638 43.6795 17.9452C43.1585 18.2057 42.5562 18.3685 41.9864 18.4011C39.6095 18.4987 37.3303 17.6685 35.5721 16.0568C34.3999 14.9823 33.5534 13.6311 33.0975 12.1333C33.1952 14.5102 34.2208 16.7242 35.9628 18.3359C37.2977 19.5732 38.942 20.3384 40.7002 20.5989C42.0026 20.0779 42.7841 19.2313 42.7841 19.2313Z" fill="url(#paint20_linear_30_7676)"/>
<path d="M40.7003 20.5989C38.9421 20.3384 37.2978 19.5732 35.9629 18.3359C34.2046 16.7242 33.1953 14.5264 33.0976 12.1333C32.9348 12.8822 32.8697 13.6473 32.9022 14.4288C32.9836 16.3986 33.7 18.2383 34.9372 19.736C37.249 21.3803 39.284 21.1686 40.7003 20.5989Z" fill="url(#paint21_linear_30_7676)"/>
<path d="M42.9957 21.7222C45.7307 20.9408 46.675 18.6779 47.0006 17.0499C46.6913 16.9033 46.3494 16.8057 45.975 16.8057C45.3238 16.8057 44.7377 17.0661 44.3144 17.5057C44.1353 17.7011 42.7841 19.2314 42.7841 19.2314C42.7841 19.2314 42.0027 20.0616 40.7003 20.5989C39.2839 21.1687 37.2489 21.3803 34.9209 19.7523C34.9209 19.7523 38.0466 23.1385 42.9957 21.7222Z" fill="url(#paint22_linear_30_7676)"/>
<path d="M48.303 19.1336C48.303 18.222 47.7657 17.4242 47.0006 17.0498C46.675 18.6778 45.7308 20.9407 42.9957 21.7221C38.0466 23.1385 34.9209 19.7523 34.9209 19.7523C35.1814 20.0616 35.4581 20.3546 35.7675 20.6477C36.9396 21.7221 38.356 22.4547 39.8863 22.7966C40.6351 22.9594 41.4003 23.0245 42.1817 22.992C44.1516 22.9106 45.9912 22.1943 47.4727 20.9733L47.4564 20.957C47.9774 20.5174 48.303 19.8662 48.303 19.1336Z" fill="url(#paint23_linear_30_7676)"/>
<path d="M34.9209 19.7525C34.9209 19.7525 36.9396 21.3968 39.4467 20.9572C41.9538 20.5176 42.9306 19.0524 43.5167 18.4175C44.1028 17.7826 44.5586 17.0337 45.6168 16.8384C45.6168 16.8384 45.1447 16.8384 44.4772 17.3431C44.1679 17.571 43.5981 18.2547 43.0608 18.8571C41.905 20.192 40.6677 20.6804 39.463 20.8758C38.2583 21.0874 36.6466 20.9409 34.9209 19.7525Z" fill="url(#paint24_linear_30_7676)"/>
<path d="M16.9806 14.1201H16.7201C16.7201 19.3134 11.1035 20.3715 11.1035 20.3715C10.7291 20.4367 10.3546 20.4692 9.98019 20.4855C7.68473 20.5832 5.50322 19.7692 3.81011 18.2226C2.58912 17.0993 1.74256 15.6829 1.31929 14.1201C1.15649 13.5177 1.05881 12.8991 1.04253 12.2642C0.912288 12.8665 0.847168 13.4852 0.847168 14.1201C0.847168 14.234 0.847168 14.3643 0.847168 14.4782C0.944847 16.7737 1.92164 18.8901 3.61475 20.4367C4.75434 21.4786 6.10558 22.1786 7.57077 22.5042C8.28708 22.667 9.03596 22.7321 9.78483 22.6996C12.0803 22.6019 14.1967 21.6251 15.7433 19.932C16.7852 18.7924 17.6969 17.4412 18.0062 15.976C17.8108 15.3248 17.3387 14.6899 16.9806 14.1201Z" fill="#F9F9F9"/>
<path d="M6.34975 11.2864C7.09863 10.4561 8.14054 9.98399 9.24757 9.93515C11.543 9.83747 13.7245 10.6515 15.4177 12.1981C16.0363 12.7679 16.5572 13.4191 16.9805 14.1191H17.534C17.127 12.5562 16.2642 11.1399 15.0432 10.0166C13.3664 8.45368 11.1686 7.63969 8.87313 7.73737C8.48242 7.75365 8.10798 7.80249 7.74982 7.85133C7.66842 7.93273 7.58702 8.01413 7.50562 8.09553C5.99159 9.73979 5.19388 11.8725 5.24272 14.1028C5.24272 13.0609 5.63343 12.0515 6.34975 11.2864Z" fill="#F9F9F9"/>
<path d="M18.0224 15.9755C18.0224 15.9755 17.6968 14.722 17.534 14.1196H16.9805C17.3387 14.6894 18.0224 15.9755 18.0224 15.9755Z" fill="#F9F9F9"/>
<path d="M6.59396 17.18C5.77996 16.4311 5.29156 15.3892 5.24272 14.2821C5.24272 14.217 5.24272 14.1682 5.24272 14.1031C5.19389 11.8727 5.9916 9.74005 7.50563 8.09578C8.54754 6.95619 9.84994 6.14219 11.2826 5.70264C8.9871 5.80032 6.87071 6.77711 5.32412 8.47022C3.89149 10.0168 3.11006 12.003 3.06122 14.1031C3.06122 14.2821 3.06122 14.4612 3.06122 14.6566C3.0775 15.0473 3.12634 15.4217 3.17518 15.7799C3.25658 15.8613 3.33798 15.9427 3.41938 16.0241C5.11249 17.5707 7.29399 18.3847 9.58946 18.287C8.48242 18.3358 7.42423 17.9451 6.59396 17.18Z" fill="#F9F9F9"/>
<path d="M15.8084 14.1201H13.6106C13.6106 15.1783 13.2199 16.1713 12.5036 16.9528C11.7547 17.7668 10.7128 18.2552 9.60577 18.304C7.3103 18.4017 5.1288 17.5877 3.43569 16.0411C2.81705 15.4713 2.29609 14.8201 1.87282 14.1201C1.53094 13.534 1.2379 12.9154 1.04254 12.2642C1.0751 12.8991 1.1565 13.5177 1.3193 14.1201C1.7263 15.6829 2.58913 17.0993 3.81012 18.2226C5.50323 19.7692 7.68474 20.5832 9.98021 20.4855C10.3709 20.4692 10.7454 20.4204 11.1035 20.3715C11.1035 20.3715 16.7201 19.3296 16.7201 14.1201H15.8084Z" fill="#F9F9F9"/>
<path d="M9.06853 5.52384C6.77307 5.62152 4.65668 6.59832 3.11009 8.29142C2.06818 9.43102 1.36814 10.7822 1.04254 12.2474C1.2379 12.8986 1.51466 13.5173 1.87282 14.1033C2.23097 14.7057 2.67053 15.2755 3.19149 15.7802C3.12637 15.4057 3.09381 15.0313 3.07753 14.6569C3.07753 14.4778 3.07753 14.2987 3.07753 14.1033C3.12637 12.0032 3.9078 10.0334 5.34043 8.4705C6.88702 6.77739 9.00341 5.8006 11.2989 5.70292C10.5663 5.5564 9.81741 5.49128 9.06853 5.52384Z" fill="#F9F9F9"/>
<path d="M16.9805 14.1197C16.6223 13.5173 16.1828 12.9475 15.6618 12.4429C15.7269 12.8173 15.7595 13.1917 15.7758 13.5662C15.7758 13.7453 15.7758 13.9406 15.7758 14.1197C15.7758 14.1197 15.7758 16.1384 15.7758 18.3199C15.7758 20.8759 17.9898 22.5201 17.9898 22.5201V15.9919L16.9805 14.1197Z" fill="#F9F9F9"/>
<path d="M5.61718 17.4242C3.82639 16.6102 2.65424 15.2427 1.93792 14.1194C1.33556 13.1589 1.0588 12.3775 1.02625 12.2798C1.2216 12.931 1.49836 13.5496 1.85652 14.1194C2.2798 14.8194 2.80075 15.4706 3.41939 16.0404C5.1125 17.587 7.29401 18.401 9.58947 18.3033C9.91507 18.2871 10.2407 18.2382 10.55 18.1405C9.36155 18.3522 7.65216 18.3359 5.61718 17.4242Z" fill="#F9F9F9"/>
<path d="M14.3431 20.5503C14.3757 20.5829 14.392 20.6154 14.4083 20.648C14.392 20.6154 14.3594 20.5829 14.3431 20.5503Z" fill="#F9F9F9"/>
<path d="M14.3432 20.5339C13.6106 19.5245 13.6106 18.0919 13.6106 18.0919V14.1196C13.6106 14.0545 13.6106 14.0056 13.6106 13.9405C13.5943 13.6149 13.5455 13.2893 13.4478 12.98C13.5129 13.3219 13.5292 13.6963 13.5455 14.1196C13.5455 14.1196 13.5455 16.4964 13.5455 18.1081C13.5455 19.2966 14.0665 20.1594 14.3432 20.5339Z" fill="#F9F9F9"/>
<path d="M14.4084 20.6475C14.4572 20.7126 14.4898 20.7451 14.4898 20.7451C14.4735 20.7126 14.4409 20.68 14.4084 20.6475Z" fill="#F9F9F9"/>
<path d="M18.0062 13.7613C17.9085 11.4659 16.9317 9.34949 15.2386 7.8029C14.099 6.76098 12.7478 6.06095 11.2826 5.73535C9.96394 6.14235 8.74295 6.87494 7.74988 7.8843C8.12432 7.81918 8.49875 7.78662 8.87319 7.77034C11.1687 7.67266 13.3502 8.48665 15.0433 10.0332C16.2643 11.1566 17.1108 12.5729 17.5341 14.1358H18.0225C18.0225 13.9893 18.0062 13.8753 18.0062 13.7613Z" fill="#F9F9F9"/>
<path d="M18.0224 14.1196H17.534C17.6968 14.722 18.0224 15.9755 18.0224 15.9755C18.0224 15.9755 18.0224 14.7383 18.0224 14.1196Z" fill="#F9F9F9"/>
<path d="M6.12185 10.31C7.6196 6.9889 11.0547 5.80047 11.2826 5.73535C9.84994 6.17491 8.56383 6.9889 7.52192 8.1285C6.00789 9.77277 5.21017 11.9054 5.25901 14.1358C5.25901 14.1358 5.34041 13.159 5.35669 12.9799C5.45437 12.1659 5.68229 11.2705 6.12185 10.31Z" fill="#F9F9F9"/>
<path d="M15.8084 18.3032C15.8084 16.1217 15.8084 14.1029 15.8084 14.1029C15.8084 13.9239 15.8084 13.7448 15.8084 13.5494C15.7921 13.175 15.7433 12.7843 15.6944 12.4261C15.613 12.3447 15.5316 12.2633 15.4502 12.1819C13.7571 10.6353 11.5756 9.82133 9.28015 9.91901C10.4035 9.87017 11.4617 10.2609 12.2919 11.026C13.1059 11.7749 13.5943 12.8168 13.6432 13.9239C13.6432 13.989 13.6432 14.0378 13.6432 14.1029V18.0915C13.6432 20.5335 15.613 22.5034 18.055 22.5034C18.0225 22.5034 15.8084 20.8591 15.8084 18.3032Z" fill="#F9F9F9"/>
<path d="M16.9805 14.1197C16.5572 13.4196 16.0363 12.7685 15.4176 12.1987C13.7245 10.6358 11.543 9.83807 9.24756 9.93575C8.92196 9.95203 8.59637 10.0009 8.28705 10.0823C9.49176 9.87063 11.2012 9.87063 13.2361 10.7986C15.0269 11.6126 16.1991 12.9801 16.9154 14.1034C17.5178 15.0639 17.9899 15.8454 18.0224 15.943C17.8108 15.3081 17.3387 14.6895 16.9805 14.1197Z" fill="#F9F9F9"/>
<path d="M26.8625 17.0175C26.0322 16.2523 25.5601 15.2267 25.5113 14.1034C25.5113 14.0383 25.5113 13.9894 25.5113 13.9243V4.61222C25.5113 2.17023 23.5251 0.184082 21.0831 0.184082C21.0831 0.184082 23.3135 1.82835 23.3135 4.40058C23.3135 6.58208 23.3135 13.9243 23.3135 13.9243C23.3135 14.1034 23.3135 14.2988 23.3135 14.4778C23.3298 14.8686 23.3786 15.243 23.4437 15.6174C23.5251 15.6988 23.6065 15.7802 23.6879 15.8616C25.2182 17.2617 27.1393 18.0594 29.1905 18.1408V18.1083C28.3277 17.978 27.5137 17.6036 26.8625 17.0175Z" fill="#F9F9F9"/>
<path d="M23.3135 14.4778C23.3135 14.2988 23.3135 14.1034 23.3135 13.9243C23.3135 13.9243 23.3135 6.58208 23.3135 4.40058C23.3135 1.82835 21.0831 0.184082 21.0831 0.184082L21.132 13.9243H22.125C22.4832 14.5267 22.939 15.0965 23.4437 15.6174C23.3623 15.243 23.3298 14.8523 23.3135 14.4778Z" fill="#F9F9F9"/>
<path d="M31.2092 20.2244C30.8999 20.2733 30.5743 20.3058 30.265 20.3221C30.0859 20.3221 29.8906 20.3221 29.7115 20.3221C29.5812 20.3221 29.4673 20.3221 29.337 20.3058C29.2719 20.3058 29.2231 20.2895 29.1742 20.2895C29.1091 20.2895 29.044 20.2733 28.9789 20.2733C28.8975 20.2733 28.8324 20.257 28.751 20.2407C28.7021 20.2407 28.6533 20.2244 28.6207 20.2244C28.5393 20.2081 28.4416 20.1919 28.3602 20.1756C28.3277 20.1756 28.2951 20.1593 28.2626 20.1593C28.1649 20.143 28.0672 20.1267 27.9695 20.0942C27.9532 20.0942 27.937 20.0942 27.9044 20.0779C27.8067 20.0616 27.6928 20.0291 27.5951 19.9965C27.5788 19.9965 27.5788 19.9965 27.5625 19.9965C27.4486 19.9639 27.3509 19.9314 27.2369 19.8988C27.2369 19.8988 27.2369 19.8988 27.2207 19.8988C27.1067 19.8663 26.9927 19.8174 26.8951 19.7849C25.8694 19.3941 24.9089 18.8081 24.0624 18.0429C22.8414 16.9196 21.9785 15.5032 21.5715 13.9241C21.2622 13.2078 21.0831 10.7495 21.0831 10.7495C21.0831 10.7495 21.132 13.2892 21.132 13.9241C21.132 14.0381 21.132 14.152 21.132 14.266C21.2296 16.5614 22.1739 18.6941 23.867 20.257C25.0066 21.2989 26.3741 22.0152 27.8393 22.3408C28.0835 22.3896 28.4905 22.4873 28.7835 22.4873C28.8649 22.4873 28.93 22.5036 29.0114 22.5036C30.2324 22.5036 31.2092 21.5268 31.2092 20.3058C31.2092 20.2733 31.2092 20.2407 31.2092 20.2244Z" fill="#F9F9F9"/>
<path d="M29.7114 18.2224C29.5324 18.1573 29.337 18.1247 29.1254 18.1085C27.1066 18.0108 25.1856 17.2293 23.6879 15.8456C23.0692 15.2758 22.5483 14.6246 22.125 13.9245C21.4575 12.9966 21.0994 10.2778 21.0994 10.2778C21.0994 10.2778 21.1156 12.6547 21.5878 13.9245C22.011 15.4874 22.8576 16.92 24.0786 18.0433C24.9089 18.8085 25.8694 19.3946 26.9113 19.7853C27.8067 20.1109 28.7672 20.3062 29.7277 20.3225C29.9068 20.3225 30.0859 20.3225 30.2812 20.3225C30.6068 20.3062 30.9161 20.2737 31.2255 20.2249C31.1766 19.2806 30.558 18.4992 29.7114 18.2224Z" fill="#F9F9F9"/>
<path d="M26.9927 7.52625C29.565 7.52625 31.2092 5.2959 31.2092 5.2959H21.0831V7.52625C23.0204 7.52625 25.8531 7.52625 26.9927 7.52625Z" fill="#F9F9F9"/>
<path d="M26.9927 7.52625C25.8531 7.52625 23.0204 7.52625 21.0668 7.52625V9.72403H26.7648C26.7974 9.72403 26.8136 9.72403 26.8462 9.72403C27.0416 9.70775 27.5462 9.67519 28.116 9.51239C29.9068 8.9426 31.1929 7.26577 31.1929 5.2959C31.2092 5.2959 29.5649 7.52625 26.9927 7.52625Z" fill="#F9F9F9"/>
<path d="M29.3534 8.91001C29.4185 8.86117 29.4511 8.82861 29.4511 8.82861C29.4185 8.86117 29.386 8.87745 29.3534 8.91001Z" fill="#F9F9F9"/>
<path d="M29.0277 18.0757C28.1323 18.0106 27.0578 17.7664 25.8857 17.2454C24.0786 16.4314 22.9065 15.0476 22.1901 13.9243C21.5878 12.9638 21.1808 11.3521 21.0668 9.72412C21.0668 11.6126 21.7506 13.3383 22.0925 13.9243C22.5157 14.6244 23.0367 15.2756 23.6553 15.8454C25.1856 17.2454 27.123 18.0431 29.1742 18.1245C29.0277 18.0757 29.1091 18.092 29.0277 18.0757Z" fill="#F9F9F9"/>
<path d="M26.7811 9.72412H21.0831V9.78924C22.6786 9.78924 23.8507 9.78924 25.088 9.78924L26.7811 9.72412Z" fill="#F9F9F9"/>
<defs>
<linearGradient id="paint0_linear_30_7676" x1="66.6369" y1="12.0519" x2="55.6463" y2="7.27337" gradientUnits="userSpaceOnUse">
<stop stop-color="#82C41E"/>
<stop offset="1" stop-color="#2E9331"/>
</linearGradient>
<linearGradient id="paint1_linear_30_7676" x1="65.4821" y1="14.7084" x2="54.4915" y2="9.92987" gradientUnits="userSpaceOnUse">
<stop stop-color="#82C41E"/>
<stop offset="1" stop-color="#2E9331"/>
</linearGradient>
<linearGradient id="paint2_linear_30_7676" x1="57.1753" y1="21.7829" x2="62.0221" y2="10.8606" gradientUnits="userSpaceOnUse">
<stop stop-color="#82C41E"/>
<stop offset="1" stop-color="#2E9331"/>
</linearGradient>
<linearGradient id="paint3_linear_30_7676" x1="59.8697" y1="22.9779" x2="64.7165" y2="12.0555" gradientUnits="userSpaceOnUse">
<stop stop-color="#82C41E"/>
<stop offset="1" stop-color="#2E9331"/>
</linearGradient>
<linearGradient id="paint4_linear_30_7676" x1="61.0517" y1="6.10934" x2="53.1753" y2="17.1036" gradientUnits="userSpaceOnUse">
<stop stop-color="#82C41E"/>
<stop offset="1" stop-color="#2E9331"/>
</linearGradient>
<linearGradient id="paint5_linear_30_7676" x1="55.4777" y1="6.0534" x2="51.9647" y2="16.097" gradientUnits="userSpaceOnUse">
<stop stop-color="#82C41E"/>
<stop offset="1" stop-color="#2E9331"/>
</linearGradient>
<linearGradient id="paint6_linear_30_7676" x1="49.594" y1="16.1221" x2="59.6289" y2="20.9689" gradientUnits="userSpaceOnUse">
<stop stop-color="#82C41E"/>
<stop offset="1" stop-color="#2E9331"/>
</linearGradient>
<linearGradient id="paint7_linear_30_7676" x1="50.9555" y1="13.3031" x2="60.9904" y2="18.1499" gradientUnits="userSpaceOnUse">
<stop stop-color="#82C41E"/>
<stop offset="1" stop-color="#2E9331"/>
</linearGradient>
<linearGradient id="paint8_linear_30_7676" x1="57.3507" y1="8.93017" x2="67.2593" y2="15.1067" gradientUnits="userSpaceOnUse">
<stop stop-color="#82C41E"/>
<stop offset="1" stop-color="#2E9331"/>
</linearGradient>
<linearGradient id="paint9_linear_30_7676" x1="48.719" y1="13.1259" x2="58.6057" y2="19.1278" gradientUnits="userSpaceOnUse">
<stop stop-color="#82C41E"/>
<stop offset="1" stop-color="#2E9331"/>
</linearGradient>
<linearGradient id="paint10_linear_30_7676" x1="63.0736" y1="13.4474" x2="56.9847" y2="23.3555" gradientUnits="userSpaceOnUse">
<stop stop-color="#82C41E"/>
<stop offset="1" stop-color="#2E9331"/>
</linearGradient>
<linearGradient id="paint11_linear_30_7676" x1="58.9587" y1="4.75213" x2="52.8259" y2="14.7262" gradientUnits="userSpaceOnUse">
<stop stop-color="#82C41E"/>
<stop offset="1" stop-color="#2E9331"/>
</linearGradient>
<linearGradient id="paint12_linear_30_7676" x1="37.532" y1="13.4968" x2="37.3939" y2="13.7213" gradientUnits="userSpaceOnUse">
<stop stop-color="#82C41E"/>
<stop offset="1" stop-color="#2E9331"/>
</linearGradient>
<linearGradient id="paint13_linear_30_7676" x1="50.4002" y1="7.41998" x2="39.3393" y2="12.9717" gradientUnits="userSpaceOnUse">
<stop stop-color="#82C41E"/>
<stop offset="1" stop-color="#2E9331"/>
</linearGradient>
<linearGradient id="paint14_linear_30_7676" x1="48.6874" y1="12.1796" x2="38.8466" y2="10.6968" gradientUnits="userSpaceOnUse">
<stop stop-color="#82C41E"/>
<stop offset="1" stop-color="#2E9331"/>
</linearGradient>
<linearGradient id="paint15_linear_30_7676" x1="48.9177" y1="10.6498" x2="39.0769" y2="9.16692" gradientUnits="userSpaceOnUse">
<stop stop-color="#82C41E"/>
<stop offset="1" stop-color="#2E9331"/>
</linearGradient>
<linearGradient id="paint16_linear_30_7676" x1="40.2051" y1="5.30093" x2="38.3419" y2="17.6265" gradientUnits="userSpaceOnUse">
<stop stop-color="#82C41E"/>
<stop offset="1" stop-color="#2E9331"/>
</linearGradient>
<linearGradient id="paint17_linear_30_7676" x1="38.9662" y1="5.11355" x2="37.1031" y2="17.4391" gradientUnits="userSpaceOnUse">
<stop stop-color="#82C41E"/>
<stop offset="1" stop-color="#2E9331"/>
</linearGradient>
<linearGradient id="paint18_linear_30_7676" x1="32.5326" y1="13.0996" x2="42.3918" y2="19.1397" gradientUnits="userSpaceOnUse">
<stop stop-color="#82C41E"/>
<stop offset="1" stop-color="#2E9331"/>
</linearGradient>
<linearGradient id="paint19_linear_30_7676" x1="42.8604" y1="4.84514" x2="36.6986" y2="14.578" gradientUnits="userSpaceOnUse">
<stop stop-color="#82C41E"/>
<stop offset="1" stop-color="#2E9331"/>
</linearGradient>
<linearGradient id="paint20_linear_30_7676" x1="34.1762" y1="11.9108" x2="42.2262" y2="20.0389" gradientUnits="userSpaceOnUse">
<stop stop-color="#82C41E"/>
<stop offset="1" stop-color="#2E9331"/>
</linearGradient>
<linearGradient id="paint21_linear_30_7676" x1="32.0822" y1="13.9848" x2="40.1321" y2="22.1129" gradientUnits="userSpaceOnUse">
<stop stop-color="#82C41E"/>
<stop offset="1" stop-color="#2E9331"/>
</linearGradient>
<linearGradient id="paint22_linear_30_7676" x1="47.9231" y1="18.1917" x2="30.6237" y2="23.1017" gradientUnits="userSpaceOnUse">
<stop stop-color="#82C41E"/>
<stop offset="1" stop-color="#2E9331"/>
</linearGradient>
<linearGradient id="paint23_linear_30_7676" x1="48.0934" y1="18.7915" x2="30.7939" y2="23.7016" gradientUnits="userSpaceOnUse">
<stop stop-color="#82C41E"/>
<stop offset="1" stop-color="#2E9331"/>
</linearGradient>
<linearGradient id="paint24_linear_30_7676" x1="35.1174" y1="20.916" x2="45.9299" y2="17.9761" gradientUnits="userSpaceOnUse">
<stop stop-color="#82C41E"/>
<stop offset="1" stop-color="#2E9331"/>
</linearGradient>
</defs>
</svg>
