<svg width="279" height="275" viewBox="0 0 279 275" fill="none" xmlns="http://www.w3.org/2000/svg">
<path d="M11.4568 91.6541C5.12461 91.6541 0 86.5295 0 80.1973V11.4568C0 5.12461 5.12461 0 11.4568 0H57.2838C63.616 0 68.7406 5.12461 68.7406 11.4568C68.7406 17.7889 63.616 22.9135 57.2838 22.9135H22.9135V80.1973C22.9135 86.5295 17.7889 91.6541 11.4568 91.6541Z" fill="#2C2C2B"/>
<path d="M268.418 81.838C262.99 81.838 258.598 77.4455 258.598 72.0179V22.9175H229.138C223.71 22.9175 219.318 18.525 219.318 13.0974C219.318 7.66987 223.71 3.27734 229.138 3.27734H268.418C273.846 3.27734 278.238 7.66987 278.238 13.0974V72.0179C278.238 77.4455 273.846 81.838 268.418 81.838Z" fill="#2C2C2B"/>
<path d="M49.1004 274.962H9.82008C4.39252 274.962 0 270.569 0 265.142V206.221C0 200.794 4.39252 196.401 9.82008 196.401C15.2476 196.401 19.6402 200.794 19.6402 206.221V255.322H49.1004C54.528 255.322 58.9205 259.714 58.9205 265.142C58.9205 270.569 54.528 274.962 49.1004 274.962Z" fill="#2C2C2B"/>
<path d="M268.418 274.964H229.138C223.71 274.964 219.318 270.571 219.318 265.144C219.318 259.716 223.71 255.324 229.138 255.324H258.598V206.223C258.598 200.796 262.99 196.403 268.418 196.403C273.846 196.403 278.238 200.796 278.238 206.223V265.144C278.238 270.571 273.846 274.964 268.418 274.964Z" fill="#2C2C2B"/>
<path d="M203.885 66.6268C203.73 65.9813 203.404 65.3891 202.943 64.912C202.481 64.4348 201.9 64.0901 201.26 63.9138L123.196 42.1379C122.721 42.0049 122.226 41.9666 121.736 42.0252C121.247 42.0838 120.775 42.2382 120.345 42.4795C119.916 42.7208 119.538 43.0443 119.234 43.4316C118.93 43.8189 118.705 44.2623 118.572 44.7366L113.509 62.7157C113.241 63.6734 113.365 64.6984 113.853 65.5652C114.34 66.4319 115.152 67.0694 116.11 67.3375L112.579 79.9785C112.311 80.9362 112.435 81.9612 112.923 82.828C113.41 83.6947 114.222 84.3322 115.18 84.6003L120.597 86.1171L119.584 89.7283C119.319 90.686 119.444 91.7096 119.931 92.5755C120.419 93.4415 121.229 94.0794 122.185 94.3501L125.892 95.3869L120.372 113.895C118.888 114.521 117.613 115.557 116.697 116.882L100.872 115.303V100.116C100.911 98.6662 100.373 97.2606 99.3777 96.2064C98.3822 95.1522 97.0097 94.5353 95.5604 94.4907H85.8725C85.3752 94.4907 84.8983 94.6882 84.5467 95.0399C84.195 95.3915 83.9975 95.8684 83.9975 96.3657V160.115C83.9975 160.612 84.195 161.089 84.5467 161.44C84.8983 161.792 85.3752 161.989 85.8725 161.989H95.5604C97.0097 161.945 98.3822 161.328 99.3777 160.274C100.373 159.22 100.911 157.814 100.872 156.365V129.948L118.465 128.302C119.933 129.469 121.751 130.108 123.627 130.115C125.864 130.113 128.008 129.223 129.59 127.641C131.172 126.059 132.062 123.915 132.064 121.678C132.054 120.266 131.686 118.879 130.994 117.648L136.727 98.4281L140.246 99.4031C141.204 99.6712 142.229 99.5477 143.096 99.06C143.963 98.5723 144.6 97.7603 144.868 96.8025L145.871 93.1932L178.372 102.291C179.029 102.483 179.727 102.487 180.386 102.302C181.045 102.117 181.639 101.751 182.099 101.244C182.379 101.278 182.66 101.297 182.941 101.302C185.533 101.212 188.005 100.192 189.905 98.4281C192.78 95.8214 194.834 92.4334 195.815 88.6783C196.926 84.9598 196.932 80.9981 195.83 77.2766C195.605 76.602 195.329 75.9457 195.003 75.3136C196.719 75.19 198.34 74.4804 199.595 73.3036L202.822 70.2568C203.308 69.8026 203.663 69.2261 203.85 68.5874C204.037 67.9488 204.049 67.2716 203.885 66.6268ZM100.872 126.178V119.053L115.309 120.5C115.047 121.942 115.218 123.43 115.801 124.775L100.872 126.178ZM128.018 114.504C126.936 113.844 125.717 113.44 124.456 113.321L129.501 96.3938L133.116 97.4063L128.018 114.504ZM179.392 98.6756L145.08 89.0721L123.413 83.0103L116.191 80.991L119.729 68.3518L150.371 76.9279C151.029 77.1109 151.709 77.2036 152.393 77.2035C153.366 77.2032 154.331 77.0121 155.231 76.641L171.448 70.013C172.222 69.6981 173.08 69.6487 173.885 69.8724L186.47 73.3955L179.392 98.6756ZM192.211 87.6621C191.433 90.7054 189.786 93.4565 187.471 95.5801C186.395 96.5749 185.054 97.2382 183.611 97.4907L189.95 74.8486C191.05 75.7973 191.854 77.0433 192.264 78.4372C193.139 81.4542 193.118 84.6605 192.204 87.6658L192.211 87.6621Z" fill="#2C2C2B"/>
<path d="M131.861 73.6924L122.835 71.1669C122.598 71.1003 122.35 71.0812 122.106 71.1105C121.861 71.1398 121.625 71.217 121.41 71.3376C121.196 71.4583 121.007 71.6201 120.855 71.8137C120.702 72.0074 120.59 72.2291 120.524 72.4662L119.009 77.883C118.875 78.3616 118.936 78.8737 119.18 79.3069C119.424 79.74 119.829 80.0587 120.308 80.1929L129.336 82.7204C129.815 82.8541 130.327 82.7921 130.76 82.5481C131.193 82.3041 131.512 81.898 131.646 81.4192L133.163 76.0043C133.229 75.767 133.248 75.519 133.219 75.2744C133.189 75.0298 133.112 74.7934 132.991 74.5787C132.87 74.364 132.708 74.1752 132.514 74.0231C132.321 73.8711 132.099 73.7587 131.861 73.6924Z" fill="#2C2C2B"/>
<path d="M162.845 88.207L161.04 87.7026C160.803 87.636 160.555 87.6168 160.31 87.6461C160.065 87.6754 159.829 87.7526 159.614 87.8733C159.399 87.994 159.21 88.1559 159.058 88.3496C158.906 88.5434 158.794 88.7652 158.727 89.0025C158.661 89.2397 158.642 89.4877 158.671 89.7323C158.701 89.9769 158.778 90.2133 158.899 90.4279C159.02 90.6426 159.182 90.8313 159.376 90.9833C159.57 91.1353 159.792 91.2476 160.029 91.3138L161.835 91.8182C161.999 91.8651 162.17 91.8885 162.341 91.8875C162.794 91.8873 163.232 91.7231 163.573 91.4252C163.914 91.1273 164.136 90.716 164.198 90.2671C164.259 89.8183 164.156 89.3624 163.907 88.9837C163.659 88.605 163.282 88.3291 162.845 88.207Z" fill="#2C2C2B"/>
<path d="M170.068 90.2314L168.262 89.7252C167.784 89.5917 167.271 89.6537 166.838 89.8976C166.405 90.1415 166.087 90.5473 165.953 91.0259C165.819 91.5045 165.881 92.0167 166.124 92.45C166.368 92.8832 166.773 93.202 167.252 93.3364L169.057 93.8407C169.222 93.8877 169.394 93.911 169.565 93.9101C170.017 93.9079 170.453 93.7426 170.792 93.4448C171.132 93.1469 171.353 92.7365 171.414 92.2889C171.475 91.8414 171.372 91.3868 171.125 91.0088C170.878 90.6308 170.502 90.3547 170.068 90.2314Z" fill="#2C2C2B"/>
<path d="M177.29 92.2529L175.485 91.7467C175.006 91.6132 174.494 91.6752 174.061 91.9191C173.628 92.163 173.309 92.5688 173.175 93.0474C173.041 93.526 173.103 94.0382 173.347 94.4714C173.59 94.9047 173.996 95.2235 174.474 95.3579L176.28 95.8622C176.444 95.9098 176.615 95.9338 176.786 95.9335C177.239 95.9332 177.677 95.769 178.018 95.4711C178.359 95.1733 178.581 94.7619 178.643 94.3131C178.704 93.8642 178.601 93.4083 178.352 93.0296C178.104 92.6509 177.727 92.375 177.29 92.2529Z" fill="#2C2C2B"/>
<path d="M189.915 85.6873L188.744 85.259C188.434 85.146 188.102 85.1985 187.821 85.4048C187.54 85.6112 187.334 85.9545 187.247 86.3594C187.16 86.7642 187.2 87.1975 187.358 87.564C187.516 87.9305 187.779 88.2002 188.089 88.3139L189.259 88.7406C189.366 88.7808 189.477 88.8011 189.588 88.8008C189.881 88.8007 190.165 88.6617 190.386 88.4097C190.607 88.1577 190.751 87.8097 190.791 87.4301C190.831 87.0504 190.764 86.6647 190.603 86.3443C190.442 86.0239 190.197 85.7905 189.915 85.6873Z" fill="#2C2C2B"/>
</svg>
